<mxfile host="Electron" modified="2024-05-29T11:25:08.544Z" agent="Mozilla/5.0 (Windows NT 10.0; Win64; x64) AppleWebKit/537.36 (KHTML, like Gecko) draw.io/24.2.5 Chrome/120.0.6099.109 Electron/28.1.0 Safari/537.36" etag="Sb9SotgNHHFIrvq_M4Ul" version="24.2.5" type="device">
  <diagram name="Страница — 1" id="RGIMQtYcXJXUrezbXQmJ">
    <mxGraphModel dx="3160" dy="1700" grid="1" gridSize="10" guides="1" tooltips="1" connect="1" arrows="1" fold="1" page="1" pageScale="1" pageWidth="827" pageHeight="1169" math="0" shadow="0">
      <root>
        <mxCell id="0" />
        <mxCell id="1" parent="0" />
        <mxCell id="g8OrCtiKu5_D2DswR3pl-4" value="" style="edgeStyle=orthogonalEdgeStyle;rounded=0;orthogonalLoop=1;jettySize=auto;html=1;" edge="1" parent="1" source="g8OrCtiKu5_D2DswR3pl-1" target="g8OrCtiKu5_D2DswR3pl-3">
          <mxGeometry relative="1" as="geometry" />
        </mxCell>
        <mxCell id="g8OrCtiKu5_D2DswR3pl-1" value="НАЧАЛО" style="ellipse;whiteSpace=wrap;html=1;" vertex="1" parent="1">
          <mxGeometry x="200" y="40" width="120" height="80" as="geometry" />
        </mxCell>
        <mxCell id="g8OrCtiKu5_D2DswR3pl-6" value="" style="edgeStyle=orthogonalEdgeStyle;rounded=0;orthogonalLoop=1;jettySize=auto;html=1;" edge="1" parent="1" source="g8OrCtiKu5_D2DswR3pl-3" target="g8OrCtiKu5_D2DswR3pl-5">
          <mxGeometry relative="1" as="geometry" />
        </mxCell>
        <mxCell id="g8OrCtiKu5_D2DswR3pl-3" value="Декларируем счетчика x = -20" style="whiteSpace=wrap;html=1;" vertex="1" parent="1">
          <mxGeometry x="200" y="210" width="120" height="60" as="geometry" />
        </mxCell>
        <mxCell id="g8OrCtiKu5_D2DswR3pl-8" value="" style="edgeStyle=orthogonalEdgeStyle;rounded=0;orthogonalLoop=1;jettySize=auto;html=1;" edge="1" parent="1" source="g8OrCtiKu5_D2DswR3pl-5" target="g8OrCtiKu5_D2DswR3pl-7">
          <mxGeometry relative="1" as="geometry" />
        </mxCell>
        <mxCell id="g8OrCtiKu5_D2DswR3pl-9" value="Нет" style="edgeLabel;html=1;align=center;verticalAlign=middle;resizable=0;points=[];" vertex="1" connectable="0" parent="g8OrCtiKu5_D2DswR3pl-8">
          <mxGeometry x="-0.3429" relative="1" as="geometry">
            <mxPoint x="13" y="-10" as="offset" />
          </mxGeometry>
        </mxCell>
        <mxCell id="g8OrCtiKu5_D2DswR3pl-12" style="edgeStyle=orthogonalEdgeStyle;rounded=0;orthogonalLoop=1;jettySize=auto;html=1;entryX=0.5;entryY=0;entryDx=0;entryDy=0;" edge="1" parent="1" source="g8OrCtiKu5_D2DswR3pl-5" target="g8OrCtiKu5_D2DswR3pl-11">
          <mxGeometry relative="1" as="geometry" />
        </mxCell>
        <mxCell id="g8OrCtiKu5_D2DswR3pl-13" value="Да" style="edgeLabel;html=1;align=center;verticalAlign=middle;resizable=0;points=[];" vertex="1" connectable="0" parent="g8OrCtiKu5_D2DswR3pl-12">
          <mxGeometry x="-0.44" y="1" relative="1" as="geometry">
            <mxPoint x="-32" y="-9" as="offset" />
          </mxGeometry>
        </mxCell>
        <mxCell id="g8OrCtiKu5_D2DswR3pl-5" value="x &amp;lt; 40.1" style="rhombus;whiteSpace=wrap;html=1;" vertex="1" parent="1">
          <mxGeometry x="200" y="340" width="120" height="80" as="geometry" />
        </mxCell>
        <mxCell id="g8OrCtiKu5_D2DswR3pl-7" value="КОНЕЦ" style="ellipse;whiteSpace=wrap;html=1;" vertex="1" parent="1">
          <mxGeometry x="30" y="460" width="120" height="80" as="geometry" />
        </mxCell>
        <mxCell id="g8OrCtiKu5_D2DswR3pl-16" style="edgeStyle=orthogonalEdgeStyle;rounded=0;orthogonalLoop=1;jettySize=auto;html=1;" edge="1" parent="1" source="g8OrCtiKu5_D2DswR3pl-10" target="g8OrCtiKu5_D2DswR3pl-15">
          <mxGeometry relative="1" as="geometry" />
        </mxCell>
        <mxCell id="g8OrCtiKu5_D2DswR3pl-17" value="Да" style="edgeLabel;html=1;align=center;verticalAlign=middle;resizable=0;points=[];" vertex="1" connectable="0" parent="g8OrCtiKu5_D2DswR3pl-16">
          <mxGeometry x="-0.8423" y="5" relative="1" as="geometry">
            <mxPoint x="-8" y="-5" as="offset" />
          </mxGeometry>
        </mxCell>
        <mxCell id="g8OrCtiKu5_D2DswR3pl-22" style="edgeStyle=orthogonalEdgeStyle;rounded=0;orthogonalLoop=1;jettySize=auto;html=1;entryX=0.5;entryY=0;entryDx=0;entryDy=0;" edge="1" parent="1" source="g8OrCtiKu5_D2DswR3pl-10" target="g8OrCtiKu5_D2DswR3pl-20">
          <mxGeometry relative="1" as="geometry" />
        </mxCell>
        <mxCell id="g8OrCtiKu5_D2DswR3pl-23" value="Нет" style="edgeLabel;html=1;align=center;verticalAlign=middle;resizable=0;points=[];" vertex="1" connectable="0" parent="g8OrCtiKu5_D2DswR3pl-22">
          <mxGeometry x="-0.6571" y="1" relative="1" as="geometry">
            <mxPoint x="26" y="-11" as="offset" />
          </mxGeometry>
        </mxCell>
        <mxCell id="g8OrCtiKu5_D2DswR3pl-10" value="-3 &amp;lt;= x &amp;lt;= 3" style="rhombus;whiteSpace=wrap;html=1;" vertex="1" parent="1">
          <mxGeometry x="370" y="630" width="140" height="80" as="geometry" />
        </mxCell>
        <mxCell id="g8OrCtiKu5_D2DswR3pl-14" value="" style="edgeStyle=orthogonalEdgeStyle;rounded=0;orthogonalLoop=1;jettySize=auto;html=1;" edge="1" parent="1" source="g8OrCtiKu5_D2DswR3pl-11" target="g8OrCtiKu5_D2DswR3pl-10">
          <mxGeometry relative="1" as="geometry" />
        </mxCell>
        <mxCell id="g8OrCtiKu5_D2DswR3pl-11" value="Отбрасываем до 3 знаков после запятой пер. x" style="rounded=0;whiteSpace=wrap;html=1;" vertex="1" parent="1">
          <mxGeometry x="380" y="480" width="120" height="60" as="geometry" />
        </mxCell>
        <mxCell id="g8OrCtiKu5_D2DswR3pl-37" style="edgeStyle=orthogonalEdgeStyle;rounded=0;orthogonalLoop=1;jettySize=auto;html=1;entryX=1;entryY=0.5;entryDx=0;entryDy=0;" edge="1" parent="1" source="g8OrCtiKu5_D2DswR3pl-15" target="g8OrCtiKu5_D2DswR3pl-36">
          <mxGeometry relative="1" as="geometry">
            <Array as="points">
              <mxPoint x="650" y="1340" />
            </Array>
          </mxGeometry>
        </mxCell>
        <mxCell id="g8OrCtiKu5_D2DswR3pl-15" value="Декларирование&amp;nbsp;&lt;div&gt;пер. y =&amp;nbsp;sqrt(9 - x**2) + 1&lt;/div&gt;" style="rounded=0;whiteSpace=wrap;html=1;" vertex="1" parent="1">
          <mxGeometry x="560" y="760" width="160" height="80" as="geometry" />
        </mxCell>
        <mxCell id="g8OrCtiKu5_D2DswR3pl-18" style="edgeStyle=orthogonalEdgeStyle;rounded=0;orthogonalLoop=1;jettySize=auto;html=1;" edge="1" parent="1" source="g8OrCtiKu5_D2DswR3pl-20" target="g8OrCtiKu5_D2DswR3pl-21">
          <mxGeometry relative="1" as="geometry" />
        </mxCell>
        <mxCell id="g8OrCtiKu5_D2DswR3pl-19" value="Да" style="edgeLabel;html=1;align=center;verticalAlign=middle;resizable=0;points=[];" vertex="1" connectable="0" parent="g8OrCtiKu5_D2DswR3pl-18">
          <mxGeometry x="-0.8423" y="5" relative="1" as="geometry">
            <mxPoint x="-8" y="-5" as="offset" />
          </mxGeometry>
        </mxCell>
        <mxCell id="g8OrCtiKu5_D2DswR3pl-30" style="edgeStyle=orthogonalEdgeStyle;rounded=0;orthogonalLoop=1;jettySize=auto;html=1;entryX=0.5;entryY=0;entryDx=0;entryDy=0;" edge="1" parent="1" source="g8OrCtiKu5_D2DswR3pl-20" target="g8OrCtiKu5_D2DswR3pl-27">
          <mxGeometry relative="1" as="geometry" />
        </mxCell>
        <mxCell id="g8OrCtiKu5_D2DswR3pl-31" value="Нет" style="edgeLabel;html=1;align=center;verticalAlign=middle;resizable=0;points=[];" vertex="1" connectable="0" parent="g8OrCtiKu5_D2DswR3pl-30">
          <mxGeometry x="-0.6087" y="-2" relative="1" as="geometry">
            <mxPoint x="35" y="-8" as="offset" />
          </mxGeometry>
        </mxCell>
        <mxCell id="g8OrCtiKu5_D2DswR3pl-20" value="3 &amp;lt; x &amp;lt;= 7" style="rhombus;whiteSpace=wrap;html=1;" vertex="1" parent="1">
          <mxGeometry x="180" y="760" width="140" height="80" as="geometry" />
        </mxCell>
        <mxCell id="g8OrCtiKu5_D2DswR3pl-40" style="edgeStyle=orthogonalEdgeStyle;rounded=0;orthogonalLoop=1;jettySize=auto;html=1;entryX=0.5;entryY=0;entryDx=0;entryDy=0;" edge="1" parent="1" source="g8OrCtiKu5_D2DswR3pl-21" target="g8OrCtiKu5_D2DswR3pl-36">
          <mxGeometry relative="1" as="geometry" />
        </mxCell>
        <mxCell id="g8OrCtiKu5_D2DswR3pl-21" value="Декларирование&amp;nbsp;&lt;div&gt;пер. y =&amp;nbsp;sqrt(-21 - x ** 2 + 10 * x) + 1&lt;/div&gt;" style="rounded=0;whiteSpace=wrap;html=1;" vertex="1" parent="1">
          <mxGeometry x="370" y="890" width="200" height="80" as="geometry" />
        </mxCell>
        <mxCell id="g8OrCtiKu5_D2DswR3pl-24" style="edgeStyle=orthogonalEdgeStyle;rounded=0;orthogonalLoop=1;jettySize=auto;html=1;" edge="1" parent="1" source="g8OrCtiKu5_D2DswR3pl-27" target="g8OrCtiKu5_D2DswR3pl-28">
          <mxGeometry relative="1" as="geometry" />
        </mxCell>
        <mxCell id="g8OrCtiKu5_D2DswR3pl-25" value="Да" style="edgeLabel;html=1;align=center;verticalAlign=middle;resizable=0;points=[];" vertex="1" connectable="0" parent="g8OrCtiKu5_D2DswR3pl-24">
          <mxGeometry x="-0.8423" y="5" relative="1" as="geometry">
            <mxPoint x="-8" y="-5" as="offset" />
          </mxGeometry>
        </mxCell>
        <mxCell id="g8OrCtiKu5_D2DswR3pl-33" style="edgeStyle=orthogonalEdgeStyle;rounded=0;orthogonalLoop=1;jettySize=auto;html=1;entryX=0.5;entryY=0;entryDx=0;entryDy=0;" edge="1" parent="1" source="g8OrCtiKu5_D2DswR3pl-27" target="g8OrCtiKu5_D2DswR3pl-32">
          <mxGeometry relative="1" as="geometry" />
        </mxCell>
        <mxCell id="g8OrCtiKu5_D2DswR3pl-34" value="Нет" style="edgeLabel;html=1;align=center;verticalAlign=middle;resizable=0;points=[];" vertex="1" connectable="0" parent="g8OrCtiKu5_D2DswR3pl-33">
          <mxGeometry x="-0.6814" y="-3" relative="1" as="geometry">
            <mxPoint x="25" y="-7" as="offset" />
          </mxGeometry>
        </mxCell>
        <mxCell id="g8OrCtiKu5_D2DswR3pl-27" value="7 &amp;lt; x &amp;lt;= 9" style="rhombus;whiteSpace=wrap;html=1;" vertex="1" parent="1">
          <mxGeometry x="-30" y="890" width="140" height="80" as="geometry" />
        </mxCell>
        <mxCell id="g8OrCtiKu5_D2DswR3pl-42" style="edgeStyle=orthogonalEdgeStyle;rounded=0;orthogonalLoop=1;jettySize=auto;html=1;entryX=0.5;entryY=0;entryDx=0;entryDy=0;" edge="1" parent="1" source="g8OrCtiKu5_D2DswR3pl-28" target="g8OrCtiKu5_D2DswR3pl-36">
          <mxGeometry relative="1" as="geometry">
            <Array as="points">
              <mxPoint x="285" y="1180" />
              <mxPoint x="285" y="1180" />
            </Array>
          </mxGeometry>
        </mxCell>
        <mxCell id="g8OrCtiKu5_D2DswR3pl-28" value="Декларирование&amp;nbsp;&lt;div&gt;пер. y=sqrt(-63 - x ** 2 + 16 * x) + 1&lt;/div&gt;" style="rounded=0;whiteSpace=wrap;html=1;" vertex="1" parent="1">
          <mxGeometry x="160" y="1020" width="200" height="80" as="geometry" />
        </mxCell>
        <mxCell id="g8OrCtiKu5_D2DswR3pl-41" style="edgeStyle=orthogonalEdgeStyle;rounded=0;orthogonalLoop=1;jettySize=auto;html=1;entryX=0;entryY=0.5;entryDx=0;entryDy=0;" edge="1" parent="1" source="g8OrCtiKu5_D2DswR3pl-32" target="g8OrCtiKu5_D2DswR3pl-36">
          <mxGeometry relative="1" as="geometry">
            <Array as="points">
              <mxPoint x="-150" y="1340" />
            </Array>
          </mxGeometry>
        </mxCell>
        <mxCell id="g8OrCtiKu5_D2DswR3pl-32" value="Декларирование&amp;nbsp;&lt;div&gt;пер. y = 1&lt;/div&gt;" style="rounded=0;whiteSpace=wrap;html=1;" vertex="1" parent="1">
          <mxGeometry x="-240" y="1020" width="190" height="80" as="geometry" />
        </mxCell>
        <mxCell id="g8OrCtiKu5_D2DswR3pl-45" style="edgeStyle=orthogonalEdgeStyle;rounded=0;orthogonalLoop=1;jettySize=auto;html=1;entryX=0.5;entryY=0;entryDx=0;entryDy=0;" edge="1" parent="1" source="g8OrCtiKu5_D2DswR3pl-36" target="g8OrCtiKu5_D2DswR3pl-44">
          <mxGeometry relative="1" as="geometry" />
        </mxCell>
        <mxCell id="g8OrCtiKu5_D2DswR3pl-36" value="Отбрасываем до 3 знаков после запятой пер. y" style="rounded=0;whiteSpace=wrap;html=1;" vertex="1" parent="1">
          <mxGeometry x="200" y="1310" width="170" height="60" as="geometry" />
        </mxCell>
        <mxCell id="g8OrCtiKu5_D2DswR3pl-47" value="" style="edgeStyle=orthogonalEdgeStyle;rounded=0;orthogonalLoop=1;jettySize=auto;html=1;" edge="1" parent="1" source="g8OrCtiKu5_D2DswR3pl-44" target="g8OrCtiKu5_D2DswR3pl-46">
          <mxGeometry relative="1" as="geometry" />
        </mxCell>
        <mxCell id="g8OrCtiKu5_D2DswR3pl-44" value="Вывод&amp;nbsp;&lt;div&gt;f({x}) = {y}&lt;br&gt;&lt;/div&gt;" style="shape=parallelogram;perimeter=parallelogramPerimeter;whiteSpace=wrap;html=1;fixedSize=1;" vertex="1" parent="1">
          <mxGeometry x="225" y="1500" width="120" height="60" as="geometry" />
        </mxCell>
        <mxCell id="g8OrCtiKu5_D2DswR3pl-48" style="edgeStyle=orthogonalEdgeStyle;rounded=0;orthogonalLoop=1;jettySize=auto;html=1;entryX=0.5;entryY=1;entryDx=0;entryDy=0;" edge="1" parent="1" source="g8OrCtiKu5_D2DswR3pl-46" target="g8OrCtiKu5_D2DswR3pl-5">
          <mxGeometry relative="1" as="geometry">
            <Array as="points">
              <mxPoint x="-320" y="1680" />
              <mxPoint x="-320" y="590" />
              <mxPoint x="260" y="590" />
            </Array>
          </mxGeometry>
        </mxCell>
        <mxCell id="g8OrCtiKu5_D2DswR3pl-46" value="Инкрементация x" style="rounded=0;whiteSpace=wrap;html=1;" vertex="1" parent="1">
          <mxGeometry x="225" y="1650" width="120" height="60" as="geometry" />
        </mxCell>
      </root>
    </mxGraphModel>
  </diagram>
</mxfile>
